<svg width="190" height="189" viewBox="0 0 190 189" fill="none" xmlns="http://www.w3.org/2000/svg">
<g clip-path="url(#clip0_1_557)">
<path d="M17.1433 40.9541C11.0493 49.7992 6.41805 59.7308 3.60986 70.4054H46.5961L17.1433 40.9541ZM68.5345 3.78255C57.7814 6.91141 47.6727 11.9335 38.6835 18.6127L68.5345 48.4638V3.78255ZM40.9035 171.963C49.3272 177.862 58.6615 182.338 68.5345 185.215V144.337L40.9035 171.963ZM4.69435 122.403C7.81895 132.524 12.607 141.914 18.7261 150.266L46.5897 122.403H4.69435Z" fill="#29337A"/>
<path d="M18.7024 38.7608C18.1724 39.4852 17.6526 40.2169 17.1431 40.9557L46.5959 70.407H3.60965C2.91299 73.0583 2.34441 75.7608 1.87598 78.5004H58.4451L18.7024 38.7608ZM38.7116 170.404C39.4306 170.94 40.1696 171.45 40.9033 171.963L68.5343 144.336V185.213C71.1889 185.99 73.885 186.659 76.6277 187.198V132.489L38.7116 170.404ZM2.59498 114.309C3.18152 117.052 3.87379 119.753 4.69294 122.403H46.5887L18.7251 150.266C21.7539 154.404 25.1122 158.289 28.7672 161.885L76.3428 114.309H2.59498ZM68.5347 3.78255V48.4638L38.6833 18.6143C34.5679 21.6747 30.7211 25.0722 27.1568 28.7502L76.6265 78.2199V1.7979C73.8854 2.33975 71.1893 3.01127 68.5347 3.78255Z" fill="white"/>
<path d="M68.5347 122.117L68.251 122.403H68.5347V122.117ZM76.3444 114.309H76.6277V114.024L76.3444 114.309ZM112.712 78.4988H112.439V78.7733L112.712 78.4988ZM68.8136 70.407L68.5347 70.1265V70.407H68.8136ZM76.6277 78.2195V78.4988H76.907L76.6277 78.2195Z" fill="#D32030"/>
<path d="M120.53 164.295V185.479C130.529 182.681 139.996 178.246 148.545 172.353L125.592 149.4C123.757 155.844 123.086 159.176 120.53 164.295ZM125.712 43.2803L150.769 18.2233C141.653 11.5466 131.41 6.56558 120.53 3.51841V25.2793C123.477 31.1805 123.725 35.6645 125.712 43.2803ZM170.886 150.817C177.196 142.328 182.114 132.746 185.309 122.403H142.472L170.886 150.817ZM186.391 70.407C183.522 59.507 178.752 49.3891 172.466 40.4051L142.461 70.407H186.391Z" fill="#252F6C"/>
<path d="M131.229 115.911L137.723 122.404L168.806 153.488C169.512 152.604 170.213 151.724 170.888 150.819L142.474 122.404H185.311C186.127 119.756 186.82 117.054 187.405 114.311H131.836C131.745 115.458 131.338 114.771 131.229 115.911ZM124.731 48.0193L152.903 19.8436C152.199 19.2938 151.488 18.7537 150.769 18.2233L125.712 43.2803C125.972 44.271 124.489 47.0046 124.731 48.0193ZM120.53 23.538V3.51681C117.862 2.76952 115.161 2.14021 112.437 1.63072V11.3967C115.448 14.6614 118.148 18.7619 120.53 23.538ZM130.592 78.4988H188.126C187.659 75.7592 187.089 73.0583 186.392 70.4054H142.463L172.468 40.4035C169.524 36.1952 166.243 32.2326 162.659 28.5547L128.862 62.3479C129.773 68.4778 130.18 72.0377 130.592 78.4988ZM124.226 148.031L148.546 172.354C152.592 169.568 156.401 166.467 159.955 163.101L127.966 131.111C126.945 137.027 125.733 142.742 124.226 148.031ZM112.439 176.48V187.364C115.163 186.856 117.864 186.227 120.532 185.478V164.295C118.148 169.073 115.448 173.219 112.439 176.48Z" fill="#E7E7E7"/>
<path d="M128.862 62.3479L162.655 28.5547C159.609 25.4292 156.35 22.5186 152.901 19.8436L126.348 46.4017C127.528 51.3346 128.064 56.9809 128.862 62.3479Z" fill="#D71F28"/>
<path d="M94.9984 189C93.4271 189 91.8574 188.957 90.2861 188.881C91.8486 188.96 93.4183 189 94.9984 189ZM94.9984 189C100.961 189 106.783 188.423 112.438 187.364V176.48C107.474 181.86 101.667 189 94.9984 189Z" fill="#D32030"/>
<path d="M188.124 78.4988H131.337C132.09 90.3508 131.999 102.538 131.066 114.309H187.405C188.797 107.799 189.499 101.159 189.5 94.5016C189.5 89.0432 189.013 83.7046 188.124 78.4988ZM131.229 115.911C130.703 121.494 128.874 125.845 127.964 131.112L159.953 163.101C163.12 160.103 166.077 156.891 168.804 153.488L137.722 122.403L131.229 115.911Z" fill="#D71F28"/>
<path d="M112.439 12.0994V1.63232C106.785 0.577358 100.963 0 94.9985 0C101.667 0 107.474 6.72042 112.439 12.0994Z" fill="#D32030"/>
<path d="M120.53 168.382C123.086 163.261 125.278 157.366 127.113 150.923L120.53 144.34V168.382ZM127.933 41.0599C125.942 33.4441 123.477 26.5206 120.53 20.6193V48.459L127.933 41.0599Z" fill="#29337A"/>
<path d="M133.063 117.743C133.17 116.603 133.267 115.458 133.36 114.309H129.629L133.063 117.743ZM120.53 48.4594V20.6181C118.146 15.842 115.448 11.7387 112.437 8.47683V60.3098L128.69 44.0564C128.446 43.0545 128.193 42.0547 127.932 41.0571L120.53 48.4594ZM112.712 78.4988H133.631C133.221 72.0381 132.567 65.6816 131.658 59.5533L112.712 78.4988ZM112.439 180.522C115.45 177.257 118.148 173.157 120.532 168.381V144.338L127.115 150.922C128.625 145.629 129.892 139.975 130.916 134.059L112.439 115.584L112.439 180.522Z" fill="white"/>
<path d="M112.438 180.522V115.584L130.914 134.06C131.822 128.792 132.537 123.328 133.061 117.743L129.628 114.309H133.358C134.29 102.538 134.381 90.3504 133.63 78.4988H112.71L131.656 59.5533C130.857 54.1847 129.87 48.9921 128.689 44.0576L112.439 60.311V8.47803C107.474 3.09746 101.667 0 94.9984 0C93.4271 0 91.8575 0.0402994 90.2834 0.116509C85.6968 0.346753 81.1329 0.908823 76.6275 1.79831V78.2199L27.1566 28.7502C24.1124 31.8894 21.2876 35.2341 18.7021 38.7608L50.3483 70.407L58.4445 78.5004H1.87576C0.989577 83.7046 0.5 89.0432 0.5 94.5016C0.5 101.298 1.23417 107.918 2.59477 114.309H76.3442L28.7682 161.885C31.8833 164.95 35.2056 167.796 38.7118 170.404L76.6263 132.489V187.199C81.1327 188.088 85.6975 188.65 90.285 188.881C91.8563 188.957 93.4259 189 94.9972 189C101.667 189 107.474 185.903 112.438 180.522Z" fill="#E51D35"/>
</g>
<defs>
<clipPath id="clip0_1_557">
<rect width="189" height="189" fill="white" transform="translate(0.5)"/>
</clipPath>
</defs>
</svg>
