<svg width="190" height="189" viewBox="0 0 190 189" fill="none" xmlns="http://www.w3.org/2000/svg">
<g clip-path="url(#clip0_1_551)">
<path d="M94.6001 189C146.791 189 189.1 146.691 189.1 94.5C189.1 42.3091 146.791 0 94.6001 0C42.4092 0 0.100098 42.3091 0.100098 94.5C0.100098 146.691 42.4092 189 94.6001 189Z" fill="#F0F0F0"/>
<path d="M189.1 94.5C189.1 53.8683 163.455 19.23 127.47 5.87782V183.123C163.455 169.77 189.1 135.132 189.1 94.5Z" fill="#D80027"/>
<path d="M0.100098 94.5C0.100098 135.132 25.7454 169.77 61.7307 183.122V5.87782C25.7454 19.23 0.100098 53.8683 0.100098 94.5Z" fill="#0052B4"/>
</g>
<defs>
<clipPath id="clip0_1_551">
<rect width="189" height="189" fill="white" transform="translate(0.100098)"/>
</clipPath>
</defs>
</svg>
