<svg width="66" height="66" viewBox="0 0 66 66" fill="none" xmlns="http://www.w3.org/2000/svg">
<g clip-path="url(#clip0_1_501)">
<path d="M35.6101 42.2251L27.99 34.695L28.08 34.605C33.3 28.785 37.02 22.095 39.2101 15.0149H48.0001V8.99999H27V2.99994H21V8.99999H0V14.9699H33.51C31.485 20.7599 28.3199 26.2499 23.9999 31.05C21.2099 27.945 18.8999 24.57 17.0699 21H11.07C13.26 25.8899 16.2601 30.51 20.01 34.68L4.75496 49.755L9.00001 54L24.0001 39L33.3301 48.33L35.6101 42.2251ZM52.5 27H46.4999L32.9999 63H39L42.375 54H56.6249L60 63H66L52.5 27ZM44.625 48L49.5 34.995L54.3751 48H44.625Z" fill="white"/>
</g>
<defs>
<clipPath id="clip0_1_501">
<rect width="66" height="66" fill="white"/>
</clipPath>
</defs>
</svg>
